<?xml version="1.0" encoding="UTF-8" standalone="no"?>
<!-- Created with Inkscape (http://www.inkscape.org/) -->

<svg
   version="1.1"
   id="svg2"
   xml:space="preserve"
   width="5in"
   height="2in"
   viewBox="0 0 479.99997 192"
   sodipodi:docname="cercha_k.svg"
   inkscape:version="1.3.2 (091e20e, 2023-11-25, custom)"
   xmlns:inkscape="http://www.inkscape.org/namespaces/inkscape"
   xmlns:sodipodi="http://sodipodi.sourceforge.net/DTD/sodipodi-0.dtd"
   xmlns="http://www.w3.org/2000/svg"
   xmlns:svg="http://www.w3.org/2000/svg"><defs
     id="defs6" /><sodipodi:namedview
     id="namedview4"
     pagecolor="#505050"
     bordercolor="#eeeeee"
     borderopacity="1"
     inkscape:pageshadow="0"
     inkscape:pageopacity="0"
     inkscape:pagecheckerboard="0"
     showgrid="false"
     fit-margin-top="0"
     fit-margin-left="0"
     fit-margin-right="0"
     fit-margin-bottom="0"
     inkscape:zoom="1.3865548"
     inkscape:cx="227.90301"
     inkscape:cy="201.21816"
     inkscape:window-width="1920"
     inkscape:window-height="991"
     inkscape:window-x="-9"
     inkscape:window-y="-9"
     inkscape:window-maximized="1"
     inkscape:current-layer="g8"
     units="in"
     inkscape:document-units="in"
     inkscape:showpageshadow="0"
     inkscape:deskcolor="#d1d1d1" /><g
     id="g8"
     inkscape:groupmode="layer"
     inkscape:label="proyecto_optimizacion_cerchas"
     transform="matrix(1.3333333,0,0,-1.3333333,-252.55543,292.8813)"><g
       id="g60"><g
         id="g1551"
         transform="matrix(-1.1389075,0,0,1.1393964,538.02807,-23.303006)"
         style="stroke-width:0.877846"><g
           id="g384"
           transform="translate(-16.227272,25.963636)"
           style="stroke-width:0.877846"><path
             d="m 251,111.3 v -13"
             style="fill:none;stroke:#df0024;stroke-width:1.89291;stroke-linecap:butt;stroke-linejoin:miter;stroke-miterlimit:7.66129;stroke-dasharray:none;stroke-opacity:1"
             id="path386" /></g><path
           d="m 231.37273,126.66364 3.4,-1.9 3.2,1.9 -3.2,-8.1 z"
           style="fill:#df0024;fill-opacity:1;fill-rule:evenodd;stroke:none;stroke-width:0.877846"
           id="path388" /></g><g
         id="g53"
         transform="matrix(-1.1389075,0,0,1.1393964,587.43235,-21.964324)"
         style="stroke-width:0.877846"><g
           id="g52"
           transform="translate(-16.227272,25.963636)"
           style="stroke-width:0.877846"><path
             d="m 251,111.3 v -13"
             style="fill:none;stroke:#df0024;stroke-width:1.89291;stroke-linecap:butt;stroke-linejoin:miter;stroke-miterlimit:7.66129;stroke-dasharray:none;stroke-opacity:1"
             id="path52" /></g><path
           d="m 231.37273,126.66364 3.4,-1.9 3.2,1.9 -3.2,-8.1 z"
           style="fill:#df0024;fill-opacity:1;fill-rule:evenodd;stroke:none;stroke-width:0.877846"
           id="path53" /></g><g
         id="g55"
         transform="matrix(-1.1389075,0,0,1.1393964,636.3595,-21.964324)"
         style="stroke-width:0.877846"><g
           id="g54"
           transform="translate(-16.227272,25.963636)"
           style="stroke-width:0.877846"><path
             d="m 251,111.3 v -13"
             style="fill:none;stroke:#df0024;stroke-width:1.89291;stroke-linecap:butt;stroke-linejoin:miter;stroke-miterlimit:7.66129;stroke-dasharray:none;stroke-opacity:1"
             id="path54" /></g><path
           d="m 231.37273,126.66364 3.4,-1.9 3.2,1.9 -3.2,-8.1 z"
           style="fill:#df0024;fill-opacity:1;fill-rule:evenodd;stroke:none;stroke-width:0.877846"
           id="path55" /></g><g
         id="g57"
         transform="matrix(-1.1389075,0,0,1.1393964,685.51658,-21.964324)"
         style="stroke-width:0.877846"><g
           id="g56"
           transform="translate(-16.227272,25.963636)"
           style="stroke-width:0.877846"><path
             d="m 251,111.3 v -13"
             style="fill:none;stroke:#df0024;stroke-width:1.89291;stroke-linecap:butt;stroke-linejoin:miter;stroke-miterlimit:7.66129;stroke-dasharray:none;stroke-opacity:1"
             id="path56" /></g><path
           d="m 231.37273,126.66364 3.4,-1.9 3.2,1.9 -3.2,-8.1 z"
           style="fill:#df0024;fill-opacity:1;fill-rule:evenodd;stroke:none;stroke-width:0.877846"
           id="path57" /></g><g
         id="g59"
         transform="matrix(-1.1389075,0,0,1.1393964,734.67366,-21.964324)"
         style="stroke-width:0.877846"><g
           id="g58"
           transform="translate(-16.227272,25.963636)"
           style="stroke-width:0.877846"><path
             d="m 251,111.3 v -13"
             style="fill:none;stroke:#df0024;stroke-width:1.89291;stroke-linecap:butt;stroke-linejoin:miter;stroke-miterlimit:7.66129;stroke-dasharray:none;stroke-opacity:1"
             id="path58" /></g><path
           d="m 231.37273,126.66364 3.4,-1.9 3.2,1.9 -3.2,-8.1 z"
           style="fill:#df0024;fill-opacity:1;fill-rule:evenodd;stroke:none;stroke-width:0.877846"
           id="path59" /></g></g><path
       d="m 418.24605,165.5177 -49.25774,30.93479"
       style="fill:none;stroke:#000000;stroke-width:2.15631;stroke-linecap:butt;stroke-linejoin:miter;stroke-miterlimit:7.66129;stroke-dasharray:none;stroke-opacity:1"
       id="path50"
       sodipodi:nodetypes="cc" /><path
       d="m 467.44685,165.10096 -49.25774,30.9348"
       style="fill:none;stroke:#000000;stroke-width:2.15631;stroke-linecap:butt;stroke-linejoin:miter;stroke-miterlimit:7.66129;stroke-dasharray:none;stroke-opacity:1"
       id="path51"
       sodipodi:nodetypes="cc" /><path
       d="m 369.04525,196.03576 -49.20081,-30.9803"
       style="fill:none;stroke:#000000;stroke-width:2.15631;stroke-linecap:butt;stroke-linejoin:miter;stroke-miterlimit:7.66129;stroke-dasharray:none;stroke-opacity:1"
       id="path49"
       sodipodi:nodetypes="cc" /><path
       d="m 467.44685,134.16617 v 61.86959"
       style="fill:none;stroke:#000000;stroke-width:2.15631;stroke-linecap:butt;stroke-linejoin:miter;stroke-miterlimit:7.66129;stroke-dasharray:none;stroke-opacity:1"
       id="path244"
       sodipodi:nodetypes="cc" /><path
       d="m 418.24605,134.16617 v 62.70306"
       style="fill:none;stroke:#000000;stroke-width:2.15631;stroke-linecap:butt;stroke-linejoin:miter;stroke-miterlimit:7.66129;stroke-dasharray:none;stroke-opacity:1"
       id="path248"
       sodipodi:nodetypes="cc" /><path
       d="M 319.84444,134.05223 V 196.0587"
       style="fill:none;stroke:#000000;stroke-width:2.15631;stroke-linecap:butt;stroke-linejoin:miter;stroke-miterlimit:7.66129;stroke-dasharray:none;stroke-opacity:1"
       id="path252"
       sodipodi:nodetypes="cc" /><path
       d="m 270.41586,134.28011 -0.11389,61.75565"
       style="fill:none;stroke:#000000;stroke-width:2.15631;stroke-linecap:butt;stroke-linejoin:miter;stroke-miterlimit:7.66129;stroke-dasharray:none;stroke-opacity:1"
       id="path256"
       sodipodi:nodetypes="cc" /><path
       d="m 467.44685,165.10096 -49.2008,-30.93479"
       style="fill:none;stroke:#000000;stroke-width:2.15631;stroke-linecap:butt;stroke-linejoin:miter;stroke-miterlimit:7.66129;stroke-dasharray:none;stroke-opacity:1"
       id="path260"
       sodipodi:nodetypes="cc" /><path
       d="m 418.24605,165.5177 -49.2008,-31.35153 -49.20081,30.88929"
       style="fill:none;stroke:#000000;stroke-width:2.15631;stroke-linecap:butt;stroke-linejoin:miter;stroke-miterlimit:7.66129;stroke-dasharray:none;stroke-opacity:1"
       id="path264"
       sodipodi:nodetypes="ccc" /><path
       d="m 319.61666,134.16617 -49.25774,30.99176"
       style="fill:none;stroke:#000000;stroke-width:2.15631;stroke-linecap:butt;stroke-linejoin:miter;stroke-miterlimit:7.66129;stroke-dasharray:none;stroke-opacity:1"
       id="path268"
       sodipodi:nodetypes="cc" /><path
       d="M 369.04525,195.80752 V 134.16617"
       style="fill:none;stroke:#000000;stroke-width:2.15631;stroke-linecap:butt;stroke-linejoin:miter;stroke-miterlimit:7.66129;stroke-dasharray:none;stroke-opacity:1"
       id="path272" /><path
       d="M 516.64766,134.16617 H 221.44283 l 48.85914,61.86959 h 98.74328 98.4016 z"
       style="fill:none;stroke:#000000;stroke-width:2.15631;stroke-linecap:butt;stroke-linejoin:miter;stroke-miterlimit:7.66129;stroke-dasharray:none;stroke-opacity:1"
       id="path276"
       sodipodi:nodetypes="cccccc" /><path
       d="m 467.44685,130.06434 c -2.27782,0 -4.10007,1.82304 -4.10007,4.10183 0,2.16485 1.82225,3.98789 4.10007,3.98789 2.16392,0 4.10006,-1.82304 4.10006,-3.98789 0,-2.27879 -1.93614,-4.10183 -4.10006,-4.10183 z"
       style="fill:#fdf774;fill-opacity:1;fill-rule:evenodd;stroke:none;stroke-width:1"
       id="path278" /><path
       d="m 467.44685,130.06434 c -2.27781,0 -4.10006,1.82304 -4.10006,4.10183 0,2.16485 1.82225,3.98789 4.10006,3.98789 2.16393,0 4.10007,-1.82304 4.10007,-3.98789 0,-2.27879 -1.93614,-4.10183 -4.10007,-4.10183 z"
       style="fill:none;stroke:#000000;stroke-width:0.86252;stroke-linecap:butt;stroke-linejoin:miter;stroke-miterlimit:7.66129;stroke-dasharray:none;stroke-opacity:1"
       id="path282" /><path
       d="m 418.24604,130.06434 c -2.27781,0 -4.10006,1.82304 -4.10006,4.10183 0,2.27879 1.82225,3.98789 4.10006,3.98789 2.27782,0 4.10007,-1.7091 4.10007,-3.98789 0,-2.27879 -1.82225,-4.10183 -4.10007,-4.10183 z"
       style="fill:#fdf774;fill-opacity:1;fill-rule:evenodd;stroke:none;stroke-width:1"
       id="path284" /><path
       d="m 418.24605,130.06434 c -2.27782,0 -4.10007,1.82304 -4.10007,4.10183 0,2.27879 1.82225,3.98789 4.10007,3.98789 2.27781,0 4.10007,-1.7091 4.10007,-3.98789 0,-2.27879 -1.82226,-4.10183 -4.10007,-4.10183 z"
       style="fill:none;stroke:#000000;stroke-width:0.86252;stroke-linecap:butt;stroke-linejoin:miter;stroke-miterlimit:7.66129;stroke-dasharray:none;stroke-opacity:1"
       id="path288" /><path
       d="m 414.14598,196.03539 c 0,2.27879 1.82225,4.10183 4.10007,4.10183 2.16392,0 4.10006,-1.82304 4.10006,-4.10183 0,-2.16485 -1.93614,-3.98789 -4.10006,-3.98789 -2.27782,0 -4.10007,1.82304 -4.10007,3.98789 z"
       style="fill:#fdf774;fill-opacity:1;fill-rule:evenodd;stroke:none;stroke-width:1"
       id="path290" /><g
       id="g292"
       transform="matrix(-1.1389075,0,0,1.1393964,800.91896,53.83871)"
       style="stroke-width:0.877846"><path
         d="m 336,121.3 c 2,0 3.6,1.6 3.6,3.5 0,2 -1.6,3.6 -3.6,3.6 -1.9,0 -3.6,-1.6 -3.6,-3.6 0,-1.9 1.7,-3.5 3.6,-3.5 z"
         style="fill:none;stroke:#000000;stroke-width:0.75716;stroke-linecap:butt;stroke-linejoin:miter;stroke-miterlimit:7.66129;stroke-dasharray:none;stroke-opacity:1"
         id="path294" /></g><path
       d="m 467.44685,191.99053 c -2.27781,0 -4.10007,1.82304 -4.10007,4.10183 0,2.27879 1.82226,4.10183 4.10007,4.10183 2.16393,0 4.10007,-1.82304 4.10007,-4.10183 0,-2.27879 -1.93614,-4.10183 -4.10007,-4.10183 z"
       style="fill:#fdf774;fill-opacity:1;fill-rule:evenodd;stroke:none;stroke-width:1"
       id="path296" /><g
       id="g298"
       transform="matrix(-1.1389075,0,0,1.1393964,800.91896,74.40481)"
       style="stroke-width:0.877846"><path
         d="m 292.8,103.2 c 2,0 3.6,1.6 3.6,3.6 0,2 -1.6,3.6 -3.6,3.6 -1.9,0 -3.6,-1.6 -3.6,-3.6 0,-2 1.7,-3.6 3.6,-3.6 z"
         style="fill:none;stroke:#000000;stroke-width:0.75716;stroke-linecap:butt;stroke-linejoin:miter;stroke-miterlimit:7.66129;stroke-dasharray:none;stroke-opacity:1"
         id="path300" /></g><path
       d="m 369.04524,192.04751 c -2.27782,0 -4.10007,1.82303 -4.10007,3.98789 0,2.27879 1.82225,4.10182 4.10007,4.10182 2.27781,0 4.10007,-1.82303 4.10007,-4.10182 0,-2.16486 -1.82226,-3.98789 -4.10007,-3.98789 z"
       style="fill:#fdf774;fill-opacity:1;fill-rule:evenodd;stroke:none;stroke-width:1"
       id="path302" /><path
       d="m 369.04525,192.04751 c -2.27782,0 -4.10007,1.82303 -4.10007,3.98789 0,2.27879 1.82225,4.10182 4.10007,4.10182 2.27781,0 4.10006,-1.82303 4.10006,-4.10182 0,-2.16486 -1.82225,-3.98789 -4.10006,-3.98789 z"
       style="fill:none;stroke:#000000;stroke-width:0.86252;stroke-linecap:butt;stroke-linejoin:miter;stroke-miterlimit:7.66129;stroke-dasharray:none;stroke-opacity:1"
       id="path306" /><path
       d="m 368.81746,130.17828 c -2.27782,0 -4.10007,1.82304 -4.10007,4.10183 0,2.27879 1.82225,4.10183 4.10007,4.10183 2.27781,0 4.10006,-1.82304 4.10006,-4.10183 0,-2.27879 -1.82225,-4.10183 -4.10006,-4.10183 z"
       style="fill:#fdf774;fill-opacity:1;fill-rule:evenodd;stroke:none;stroke-width:1"
       id="path308" /><path
       d="m 368.81746,130.17828 c -2.27781,0 -4.10006,1.82304 -4.10006,4.10183 0,2.27879 1.82225,4.10183 4.10006,4.10183 2.27782,0 4.10007,-1.82304 4.10007,-4.10183 0,-2.27879 -1.82225,-4.10183 -4.10007,-4.10183 z"
       style="fill:none;stroke:#000000;stroke-width:0.86252;stroke-linecap:butt;stroke-linejoin:miter;stroke-miterlimit:7.66129;stroke-dasharray:none;stroke-opacity:1"
       id="path312" /><path
       d="m 319.84444,191.99053 c -2.27782,0 -4.10007,1.82304 -4.10007,4.10183 0,2.27879 1.82225,4.10183 4.10007,4.10183 2.27781,0 4.10007,-1.82304 4.10007,-4.10183 0,-2.27879 -1.82226,-4.10183 -4.10007,-4.10183 z"
       style="fill:#fdf774;fill-opacity:1;fill-rule:evenodd;stroke:none;stroke-width:1"
       id="path314" /><g
       id="g316"
       transform="matrix(-1.1389075,0,0,1.1393964,800.91896,53.78174)"
       style="stroke-width:0.877846"><path
         d="m 422.4,121.3 c 2,0 3.6,1.6 3.6,3.6 0,2 -1.6,3.6 -3.6,3.6 -2,0 -3.6,-1.6 -3.6,-3.6 0,-2 1.6,-3.6 3.6,-3.6 z"
         style="fill:none;stroke:#000000;stroke-width:0.75716;stroke-linecap:butt;stroke-linejoin:miter;stroke-miterlimit:7.66129;stroke-dasharray:none;stroke-opacity:1"
         id="path318" /></g><path
       d="m 319.61665,130.17828 c -2.27781,0 -4.10006,1.7091 -4.10006,3.98789 0,2.27879 1.82225,4.10183 4.10006,4.10183 2.27782,0 4.10007,-1.82304 4.10007,-4.10183 0,-2.27879 -1.82225,-3.98789 -4.10007,-3.98789 z"
       style="fill:#fdf774;fill-opacity:1;fill-rule:evenodd;stroke:none;stroke-width:1"
       id="path320" /><path
       d="m 319.61666,130.17828 c -2.27781,0 -4.10007,1.7091 -4.10007,3.98789 0,2.27879 1.82226,4.10183 4.10007,4.10183 2.27782,0 4.10007,-1.82304 4.10007,-4.10183 0,-2.27879 -1.82225,-3.98789 -4.10007,-3.98789 z"
       style="fill:none;stroke:#000000;stroke-width:0.86252;stroke-linecap:butt;stroke-linejoin:miter;stroke-miterlimit:7.66129;stroke-dasharray:none;stroke-opacity:1"
       id="path324" /><path
       d="m 270.30195,192.0475 c -2.27781,0 -3.98618,1.82304 -3.98618,3.98789 0,2.27879 1.70837,4.10183 3.98618,4.10183 2.27782,0 4.10007,-1.82304 4.10007,-4.10183 0,-2.16485 -1.82225,-3.98789 -4.10007,-3.98789 z"
       style="fill:#fdf774;fill-opacity:1;fill-rule:evenodd;stroke:none;stroke-width:1"
       id="path326" /><g
       id="g328"
       transform="matrix(-1.1389075,0,0,1.1393964,800.91894,74.57572)"
       style="stroke-width:0.877846"><path
         d="m 465.9,103.1 c 2,0 3.5,1.6 3.5,3.5 0,2 -1.5,3.6 -3.5,3.6 -2,0 -3.6,-1.6 -3.6,-3.6 0,-1.9 1.6,-3.5 3.6,-3.5 z"
         style="fill:none;stroke:#000000;stroke-width:0.75716;stroke-linecap:butt;stroke-linejoin:miter;stroke-miterlimit:7.66129;stroke-dasharray:none;stroke-opacity:1"
         id="path330" /></g><path
       d="m 270.52974,130.17828 c -2.27781,0 -4.10007,1.7091 -4.10007,3.98789 0,2.27879 1.82226,4.10183 4.10007,4.10183 2.16392,0 3.98618,-1.82304 3.98618,-4.10183 0,-2.27879 -1.82226,-3.98789 -3.98618,-3.98789 z"
       style="fill:#fdf774;fill-opacity:1;fill-rule:evenodd;stroke:none;stroke-width:1"
       id="path332" /><path
       d="m 270.52975,130.17828 c -2.27782,0 -4.10007,1.7091 -4.10007,3.98789 0,2.27879 1.82225,4.10183 4.10007,4.10183 2.16392,0 3.98617,-1.82304 3.98617,-4.10183 0,-2.27879 -1.82225,-3.98789 -3.98617,-3.98789 z"
       style="fill:none;stroke:#000000;stroke-width:0.86252;stroke-linecap:butt;stroke-linejoin:miter;stroke-miterlimit:7.66129;stroke-dasharray:none;stroke-opacity:1"
       id="path336" /><path
       d="m 222.69563,130.29222 c -2.27782,0 -4.10007,1.82303 -4.10007,3.98789 0,2.27879 1.82225,4.10182 4.10007,4.10182 2.16392,0 3.98618,-1.82303 3.98618,-4.10182 0,-2.16486 -1.82226,-3.98789 -3.98618,-3.98789 z"
       style="fill:#fdf774;fill-opacity:1;fill-rule:evenodd;stroke:none;stroke-width:1"
       id="path378" /><g
       id="g380"
       transform="matrix(-1.1389075,0,0,1.1393964,800.91896,33.10169)"
       style="stroke-width:0.877846"><path
         d="m 507.7,85.3 c 2,0 3.6,1.6 3.6,3.5 0,2 -1.6,3.6 -3.6,3.6 -1.9,0 -3.5,-1.6 -3.5,-3.6 0,-1.9 1.6,-3.5 3.5,-3.5 z"
         style="fill:none;stroke:#000000;stroke-width:0.75716;stroke-linecap:butt;stroke-linejoin:miter;stroke-miterlimit:7.66129;stroke-dasharray:none;stroke-opacity:1"
         id="path382" /></g><path
       d="m 515.39485,130.06434 c -2.27781,0 -4.10006,1.82304 -4.10006,3.98789 0,2.27879 1.82225,4.10183 4.10006,4.10183 2.27782,0 4.10007,-1.82304 4.10007,-4.10183 0,-2.16485 -1.82225,-3.98789 -4.10007,-3.98789 z"
       style="fill:#fdf774;fill-opacity:1;fill-rule:evenodd;stroke:none;stroke-width:1"
       id="path426" /><path
       d="m 515.39486,130.06434 c -2.27782,0 -4.10007,1.82304 -4.10007,3.98789 0,2.27879 1.82225,4.10183 4.10007,4.10183 2.27781,0 4.10007,-1.82304 4.10007,-4.10183 0,-2.16485 -1.82226,-3.98789 -4.10007,-3.98789 z"
       style="fill:none;stroke:#000000;stroke-width:0.86252;stroke-linecap:butt;stroke-linejoin:miter;stroke-miterlimit:7.66129;stroke-dasharray:none;stroke-opacity:1"
       id="path430" /><path
       d="m 467.44685,134.16617 v 61.86959"
       style="fill:none;stroke:#000000;stroke-width:2.15631;stroke-linecap:butt;stroke-linejoin:miter;stroke-miterlimit:7.66129;stroke-dasharray:none;stroke-opacity:1"
       id="path1"
       sodipodi:nodetypes="cc" /><path
       d="m 418.24605,134.16617 v 62.70306"
       style="fill:none;stroke:#000000;stroke-width:2.15631;stroke-linecap:butt;stroke-linejoin:miter;stroke-miterlimit:7.66129;stroke-dasharray:none;stroke-opacity:1"
       id="path2"
       sodipodi:nodetypes="cc" /><path
       d="M 319.84444,134.05223 V 196.0587"
       style="fill:none;stroke:#000000;stroke-width:2.15631;stroke-linecap:butt;stroke-linejoin:miter;stroke-miterlimit:7.66129;stroke-dasharray:none;stroke-opacity:1"
       id="path3"
       sodipodi:nodetypes="cc" /><path
       d="m 270.41586,134.28011 -0.11389,61.75565"
       style="fill:none;stroke:#000000;stroke-width:2.15631;stroke-linecap:butt;stroke-linejoin:miter;stroke-miterlimit:7.66129;stroke-dasharray:none;stroke-opacity:1"
       id="path4"
       sodipodi:nodetypes="cc" /><path
       d="m 319.55972,196.03576 -49.2008,-30.87783"
       style="fill:none;stroke:#000000;stroke-width:2.15631;stroke-linecap:butt;stroke-linejoin:miter;stroke-miterlimit:7.66129;stroke-dasharray:none;stroke-opacity:1"
       id="path5"
       sodipodi:nodetypes="cc" /><path
       d="M 369.04525,195.80752 V 134.16617"
       style="fill:none;stroke:#000000;stroke-width:2.15631;stroke-linecap:butt;stroke-linejoin:miter;stroke-miterlimit:7.66129;stroke-dasharray:none;stroke-opacity:1"
       id="path8" /><path
       d="M 516.64766,134.16617 H 221.44283 l 48.85914,61.86959 h 98.74328 98.4016 z"
       style="fill:none;stroke:#000000;stroke-width:2.15631;stroke-linecap:butt;stroke-linejoin:miter;stroke-miterlimit:7.66129;stroke-dasharray:none;stroke-opacity:1"
       id="path9"
       sodipodi:nodetypes="cccccc" /><path
       d="m 467.44685,130.06434 c -2.27782,0 -4.10007,1.82304 -4.10007,4.10183 0,2.16485 1.82225,3.98789 4.10007,3.98789 2.16392,0 4.10006,-1.82304 4.10006,-3.98789 0,-2.27879 -1.93614,-4.10183 -4.10006,-4.10183 z"
       style="fill:#fdf774;fill-opacity:1;fill-rule:evenodd;stroke:none;stroke-width:1"
       id="path10" /><path
       d="m 467.44685,130.06434 c -2.27781,0 -4.10006,1.82304 -4.10006,4.10183 0,2.16485 1.82225,3.98789 4.10006,3.98789 2.16393,0 4.10007,-1.82304 4.10007,-3.98789 0,-2.27879 -1.93614,-4.10183 -4.10007,-4.10183 z"
       style="fill:none;stroke:#000000;stroke-width:0.86252;stroke-linecap:butt;stroke-linejoin:miter;stroke-miterlimit:7.66129;stroke-dasharray:none;stroke-opacity:1"
       id="path11" /><path
       d="m 418.24604,130.06434 c -2.27781,0 -4.10006,1.82304 -4.10006,4.10183 0,2.27879 1.82225,3.98789 4.10006,3.98789 2.27782,0 4.10007,-1.7091 4.10007,-3.98789 0,-2.27879 -1.82225,-4.10183 -4.10007,-4.10183 z"
       style="fill:#fdf774;fill-opacity:1;fill-rule:evenodd;stroke:none;stroke-width:1"
       id="path12" /><path
       d="m 418.24605,130.06434 c -2.27782,0 -4.10007,1.82304 -4.10007,4.10183 0,2.27879 1.82225,3.98789 4.10007,3.98789 2.27781,0 4.10007,-1.7091 4.10007,-3.98789 0,-2.27879 -1.82226,-4.10183 -4.10007,-4.10183 z"
       style="fill:none;stroke:#000000;stroke-width:0.86252;stroke-linecap:butt;stroke-linejoin:miter;stroke-miterlimit:7.66129;stroke-dasharray:none;stroke-opacity:1"
       id="path13" /><path
       d="m 414.14598,196.03539 c 0,2.27879 1.82225,4.10183 4.10007,4.10183 2.16392,0 4.10006,-1.82304 4.10006,-4.10183 0,-2.16485 -1.93614,-3.98789 -4.10006,-3.98789 -2.27782,0 -4.10007,1.82304 -4.10007,3.98789 z"
       style="fill:#fdf774;fill-opacity:1;fill-rule:evenodd;stroke:none;stroke-width:1"
       id="path14" /><g
       id="g15"
       transform="matrix(-1.1389075,0,0,1.1393964,800.91896,53.83871)"
       style="stroke-width:0.877846"><path
         d="m 336,121.3 c 2,0 3.6,1.6 3.6,3.5 0,2 -1.6,3.6 -3.6,3.6 -1.9,0 -3.6,-1.6 -3.6,-3.6 0,-1.9 1.7,-3.5 3.6,-3.5 z"
         style="fill:none;stroke:#000000;stroke-width:0.75716;stroke-linecap:butt;stroke-linejoin:miter;stroke-miterlimit:7.66129;stroke-dasharray:none;stroke-opacity:1"
         id="path15" /></g><path
       d="m 467.44685,191.99053 c -2.27781,0 -4.10007,1.82304 -4.10007,4.10183 0,2.27879 1.82226,4.10183 4.10007,4.10183 2.16393,0 4.10007,-1.82304 4.10007,-4.10183 0,-2.27879 -1.93614,-4.10183 -4.10007,-4.10183 z"
       style="fill:#fdf774;fill-opacity:1;fill-rule:evenodd;stroke:none;stroke-width:1"
       id="path16" /><g
       id="g17"
       transform="matrix(-1.1389075,0,0,1.1393964,800.91896,74.40481)"
       style="stroke-width:0.877846"><path
         d="m 292.8,103.2 c 2,0 3.6,1.6 3.6,3.6 0,2 -1.6,3.6 -3.6,3.6 -1.9,0 -3.6,-1.6 -3.6,-3.6 0,-2 1.7,-3.6 3.6,-3.6 z"
         style="fill:none;stroke:#000000;stroke-width:0.75716;stroke-linecap:butt;stroke-linejoin:miter;stroke-miterlimit:7.66129;stroke-dasharray:none;stroke-opacity:1"
         id="path17" /></g><path
       d="m 369.04524,192.04751 c -2.27782,0 -4.10007,1.82303 -4.10007,3.98789 0,2.27879 1.82225,4.10182 4.10007,4.10182 2.27781,0 4.10007,-1.82303 4.10007,-4.10182 0,-2.16486 -1.82226,-3.98789 -4.10007,-3.98789 z"
       style="fill:#fdf774;fill-opacity:1;fill-rule:evenodd;stroke:none;stroke-width:1"
       id="path18" /><path
       d="m 369.04525,192.04751 c -2.27782,0 -4.10007,1.82303 -4.10007,3.98789 0,2.27879 1.82225,4.10182 4.10007,4.10182 2.27781,0 4.10006,-1.82303 4.10006,-4.10182 0,-2.16486 -1.82225,-3.98789 -4.10006,-3.98789 z"
       style="fill:none;stroke:#000000;stroke-width:0.86252;stroke-linecap:butt;stroke-linejoin:miter;stroke-miterlimit:7.66129;stroke-dasharray:none;stroke-opacity:1"
       id="path19" /><path
       d="m 368.81746,130.17828 c -2.27782,0 -4.10007,1.82304 -4.10007,4.10183 0,2.27879 1.82225,4.10183 4.10007,4.10183 2.27781,0 4.10006,-1.82304 4.10006,-4.10183 0,-2.27879 -1.82225,-4.10183 -4.10006,-4.10183 z"
       style="fill:#fdf774;fill-opacity:1;fill-rule:evenodd;stroke:none;stroke-width:1"
       id="path20" /><path
       d="m 368.81746,130.17828 c -2.27781,0 -4.10006,1.82304 -4.10006,4.10183 0,2.27879 1.82225,4.10183 4.10006,4.10183 2.27782,0 4.10007,-1.82304 4.10007,-4.10183 0,-2.27879 -1.82225,-4.10183 -4.10007,-4.10183 z"
       style="fill:none;stroke:#000000;stroke-width:0.86252;stroke-linecap:butt;stroke-linejoin:miter;stroke-miterlimit:7.66129;stroke-dasharray:none;stroke-opacity:1"
       id="path21" /><path
       d="m 319.84444,191.99053 c -2.27782,0 -4.10007,1.82304 -4.10007,4.10183 0,2.27879 1.82225,4.10183 4.10007,4.10183 2.27781,0 4.10007,-1.82304 4.10007,-4.10183 0,-2.27879 -1.82226,-4.10183 -4.10007,-4.10183 z"
       style="fill:#fdf774;fill-opacity:1;fill-rule:evenodd;stroke:none;stroke-width:1"
       id="path22" /><g
       id="g23"
       transform="matrix(-1.1389075,0,0,1.1393964,800.91896,53.78174)"
       style="stroke-width:0.877846"><path
         d="m 422.4,121.3 c 2,0 3.6,1.6 3.6,3.6 0,2 -1.6,3.6 -3.6,3.6 -2,0 -3.6,-1.6 -3.6,-3.6 0,-2 1.6,-3.6 3.6,-3.6 z"
         style="fill:none;stroke:#000000;stroke-width:0.75716;stroke-linecap:butt;stroke-linejoin:miter;stroke-miterlimit:7.66129;stroke-dasharray:none;stroke-opacity:1"
         id="path23" /></g><path
       d="m 319.61665,130.17828 c -2.27781,0 -4.10006,1.7091 -4.10006,3.98789 0,2.27879 1.82225,4.10183 4.10006,4.10183 2.27782,0 4.10007,-1.82304 4.10007,-4.10183 0,-2.27879 -1.82225,-3.98789 -4.10007,-3.98789 z"
       style="fill:#fdf774;fill-opacity:1;fill-rule:evenodd;stroke:none;stroke-width:1"
       id="path24" /><path
       d="m 319.61666,130.17828 c -2.27781,0 -4.10007,1.7091 -4.10007,3.98789 0,2.27879 1.82226,4.10183 4.10007,4.10183 2.27782,0 4.10007,-1.82304 4.10007,-4.10183 0,-2.27879 -1.82225,-3.98789 -4.10007,-3.98789 z"
       style="fill:none;stroke:#000000;stroke-width:0.86252;stroke-linecap:butt;stroke-linejoin:miter;stroke-miterlimit:7.66129;stroke-dasharray:none;stroke-opacity:1"
       id="path25" /><path
       d="m 270.30195,192.0475 c -2.27781,0 -3.98618,1.82304 -3.98618,3.98789 0,2.27879 1.70837,4.10183 3.98618,4.10183 2.27782,0 4.10007,-1.82304 4.10007,-4.10183 0,-2.16485 -1.82225,-3.98789 -4.10007,-3.98789 z"
       style="fill:#fdf774;fill-opacity:1;fill-rule:evenodd;stroke:none;stroke-width:1"
       id="path26" /><g
       id="g27"
       transform="matrix(-1.1389075,0,0,1.1393964,800.91894,74.57572)"
       style="stroke-width:0.877846"><path
         d="m 465.9,103.1 c 2,0 3.5,1.6 3.5,3.5 0,2 -1.5,3.6 -3.5,3.6 -2,0 -3.6,-1.6 -3.6,-3.6 0,-1.9 1.6,-3.5 3.6,-3.5 z"
         style="fill:none;stroke:#000000;stroke-width:0.75716;stroke-linecap:butt;stroke-linejoin:miter;stroke-miterlimit:7.66129;stroke-dasharray:none;stroke-opacity:1"
         id="path27" /></g><path
       d="m 270.52974,130.17828 c -2.27781,0 -4.10007,1.7091 -4.10007,3.98789 0,2.27879 1.82226,4.10183 4.10007,4.10183 2.16392,0 3.98618,-1.82304 3.98618,-4.10183 0,-2.27879 -1.82226,-3.98789 -3.98618,-3.98789 z"
       style="fill:#fdf774;fill-opacity:1;fill-rule:evenodd;stroke:none;stroke-width:1"
       id="path28" /><path
       d="m 270.52975,130.17828 c -2.27782,0 -4.10007,1.7091 -4.10007,3.98789 0,2.27879 1.82225,4.10183 4.10007,4.10183 2.16392,0 3.98617,-1.82304 3.98617,-4.10183 0,-2.27879 -1.82225,-3.98789 -3.98617,-3.98789 z"
       style="fill:none;stroke:#000000;stroke-width:0.86252;stroke-linecap:butt;stroke-linejoin:miter;stroke-miterlimit:7.66129;stroke-dasharray:none;stroke-opacity:1"
       id="path29" /><g
       id="g62"
       transform="translate(-292.3006)"><path
         d="m 537.60356,124.5021 h -42.48125 v -12.98912 h 42.48125 z"
         style="fill:none;stroke:#ffffff;stroke-width:0.71877;stroke-linecap:butt;stroke-linejoin:miter;stroke-miterlimit:7.66129;stroke-dasharray:none;stroke-opacity:1"
         id="path340" /><path
         d="m 509.58643,124.02554 5.80843,6.0388 5.80843,-6.0388 z"
         style="fill:#df0024;fill-opacity:1;fill-rule:evenodd;stroke:none;stroke-width:1"
         id="path346" /><g
         id="g348"
         transform="matrix(-1.1389075,0,0,1.1393964,800.91896,29.11381)"
         style="stroke-width:0.877846"><path
           d="m 245.6,83.3 h 10.2 l -5.1,5.3 z"
           style="fill:none;stroke:#e10058;stroke-width:0.630969;stroke-linecap:butt;stroke-linejoin:miter;stroke-miterlimit:7.66129;stroke-dasharray:none;stroke-opacity:1"
           id="path350" /></g><path
         d="M 537.52655,124.05402 H 495.72864"
         style="fill:none;stroke:#e10058;stroke-width:1.43754;stroke-linecap:butt;stroke-linejoin:miter;stroke-miterlimit:7.66129;stroke-dasharray:none;stroke-opacity:1"
         id="path372" /><path
         d="m 537.60356,124.5021 h -42.48125 v -12.98912 h 42.48125 z"
         style="fill:none;stroke:#ffffff;stroke-width:0.71877;stroke-linecap:butt;stroke-linejoin:miter;stroke-miterlimit:7.66129;stroke-dasharray:none;stroke-opacity:1"
         id="path30" /><path
         d="m 509.58643,124.02554 5.80843,6.0388 5.80843,-6.0388 z"
         style="fill:#df0024;fill-opacity:1;fill-rule:evenodd;stroke:none;stroke-width:1"
         id="path31" /><g
         id="g32"
         transform="matrix(-1.1389075,0,0,1.1393964,800.91896,29.11381)"
         style="stroke-width:0.877846"><path
           d="m 245.6,83.3 h 10.2 l -5.1,5.3 z"
           style="fill:none;stroke:#e10058;stroke-width:0.630969;stroke-linecap:butt;stroke-linejoin:miter;stroke-miterlimit:7.66129;stroke-dasharray:none;stroke-opacity:1"
           id="path32" /></g><path
         d="M 537.52655,124.05402 H 495.72864"
         style="fill:none;stroke:#e10058;stroke-width:1.43754;stroke-linecap:butt;stroke-linejoin:miter;stroke-miterlimit:7.66129;stroke-dasharray:none;stroke-opacity:1"
         id="path33" /></g><g
       id="g61"
       transform="translate(292.52282)"><g
         id="g5039"
         transform="matrix(1.1389075,0,0,-1.1393964,-44.005437,303.9767)"
         style="stroke-width:0.877846"><path
           d="m 237.17273,161.33551 c -1,0 -1.8,-0.9 -1.8,-1.9 0,-1 0.8,-1.8 1.8,-1.8 1.1,0 1.9,0.8 1.9,1.8 0,1 -0.8,1.9 -1.9,1.9 z"
           style="fill:#ffffff;fill-opacity:1;fill-rule:evenodd;stroke:none;stroke-width:0.877846"
           id="path352" /><g
           id="g354"
           transform="rotate(180,370.88636,120.81776)"
           style="stroke-width:0.877846"><path
             d="m 504.6,80.3 c 1,0 1.8,0.9 1.8,1.9 0,1 -0.8,1.8 -1.8,1.8 -1.1,0 -1.9,-0.8 -1.9,-1.8 0,-1 0.8,-1.9 1.9,-1.9 z"
             style="fill:none;stroke:#e10058;stroke-width:0.630969;stroke-linecap:butt;stroke-linejoin:miter;stroke-miterlimit:7.66129;stroke-dasharray:none;stroke-opacity:1"
             id="path356" /></g><path
           d="m 231.17273,161.33551 c -1,0 -1.8,-0.9 -1.8,-1.9 0,-1 0.8,-1.8 1.8,-1.8 1,0 1.8,0.8 1.8,1.8 0,1 -0.8,1.9 -1.8,1.9 z"
           style="fill:#ffffff;fill-opacity:1;fill-rule:evenodd;stroke:none;stroke-width:0.877846"
           id="path358" /><g
           id="g360"
           transform="rotate(180,370.88636,120.81776)"
           style="stroke-width:0.877846"><path
             d="m 510.6,80.3 c 1,0 1.8,0.9 1.8,1.9 0,1 -0.8,1.8 -1.8,1.8 -1,0 -1.8,-0.8 -1.8,-1.8 0,-1 0.8,-1.9 1.8,-1.9 z"
             style="fill:none;stroke:#e10058;stroke-width:0.630969;stroke-linecap:butt;stroke-linejoin:miter;stroke-miterlimit:7.66129;stroke-dasharray:none;stroke-opacity:1"
             id="path362" /></g><g
           id="g5027"
           style="stroke-width:0.877846"><path
             d="m 239.27273,157.83551 h -10.2 l 5.1,-5.4 z"
             style="fill:#df0024;fill-opacity:1;fill-rule:evenodd;stroke:none;stroke-width:0.877846"
             id="path364" /><g
             id="g366"
             transform="rotate(180,370.88636,120.81776)"
             style="stroke-width:0.877846"><path
               d="m 502.5,83.8 h 10.2 l -5.1,5.4 z"
               style="fill:none;stroke:#e10058;stroke-width:0.630969;stroke-linecap:butt;stroke-linejoin:miter;stroke-miterlimit:7.66129;stroke-dasharray:none;stroke-opacity:1"
               id="path368" /></g></g></g><g
         id="g5045"
         transform="matrix(1.1389075,0,0,-1.1393964,-44.045569,303.41282)"
         style="stroke-width:0.877846"><g
           id="g342"
           transform="rotate(180,370.88636,120.81776)"
           style="stroke-width:0.877846"><path
             d="m 489.6,80.3 h 37.2 V 69 h -37.2 z"
             style="fill:none;stroke:#ffffff;stroke-width:0.630969;stroke-linecap:butt;stroke-linejoin:miter;stroke-miterlimit:7.66129;stroke-dasharray:none;stroke-opacity:1"
             id="path344" /></g><g
           id="g374"
           transform="rotate(180,370.88636,120.81776)"
           style="stroke-width:0.877846"><path
             d="m 489,80.3 h 36.7"
             style="fill:none;stroke:#e10058;stroke-width:1.26194;stroke-linecap:butt;stroke-linejoin:miter;stroke-miterlimit:7.66129;stroke-dasharray:none;stroke-opacity:1"
             id="path376" /></g></g><g
         id="g41"
         transform="matrix(1.1389075,0,0,-1.1393964,-44.005437,303.9767)"
         style="stroke-width:0.877846"><path
           d="m 237.17273,161.33551 c -1,0 -1.8,-0.9 -1.8,-1.9 0,-1 0.8,-1.8 1.8,-1.8 1.1,0 1.9,0.8 1.9,1.8 0,1 -0.8,1.9 -1.9,1.9 z"
           style="fill:#ffffff;fill-opacity:1;fill-rule:evenodd;stroke:none;stroke-width:0.877846"
           id="path34" /><g
           id="g35"
           transform="rotate(180,370.88636,120.81776)"
           style="stroke-width:0.877846"><path
             d="m 504.6,80.3 c 1,0 1.8,0.9 1.8,1.9 0,1 -0.8,1.8 -1.8,1.8 -1.1,0 -1.9,-0.8 -1.9,-1.8 0,-1 0.8,-1.9 1.9,-1.9 z"
             style="fill:none;stroke:#e10058;stroke-width:0.630969;stroke-linecap:butt;stroke-linejoin:miter;stroke-miterlimit:7.66129;stroke-dasharray:none;stroke-opacity:1"
             id="path35" /></g><path
           d="m 231.17273,161.33551 c -1,0 -1.8,-0.9 -1.8,-1.9 0,-1 0.8,-1.8 1.8,-1.8 1,0 1.8,0.8 1.8,1.8 0,1 -0.8,1.9 -1.8,1.9 z"
           style="fill:#ffffff;fill-opacity:1;fill-rule:evenodd;stroke:none;stroke-width:0.877846"
           id="path36" /><g
           id="g37"
           transform="rotate(180,370.88636,120.81776)"
           style="stroke-width:0.877846"><path
             d="m 510.6,80.3 c 1,0 1.8,0.9 1.8,1.9 0,1 -0.8,1.8 -1.8,1.8 -1,0 -1.8,-0.8 -1.8,-1.8 0,-1 0.8,-1.9 1.8,-1.9 z"
             style="fill:none;stroke:#e10058;stroke-width:0.630969;stroke-linecap:butt;stroke-linejoin:miter;stroke-miterlimit:7.66129;stroke-dasharray:none;stroke-opacity:1"
             id="path37" /></g><g
           id="g40"
           style="stroke-width:0.877846"><path
             d="m 239.27273,157.83551 h -10.2 l 5.1,-5.4 z"
             style="fill:#df0024;fill-opacity:1;fill-rule:evenodd;stroke:none;stroke-width:0.877846"
             id="path38" /><g
             id="g39"
             transform="rotate(180,370.88636,120.81776)"
             style="stroke-width:0.877846"><path
               d="m 502.5,83.8 h 10.2 l -5.1,5.4 z"
               style="fill:none;stroke:#e10058;stroke-width:0.630969;stroke-linecap:butt;stroke-linejoin:miter;stroke-miterlimit:7.66129;stroke-dasharray:none;stroke-opacity:1"
               id="path39" /></g></g></g><g
         id="g44"
         transform="matrix(1.1389075,0,0,-1.1393964,-44.045569,303.41282)"
         style="stroke-width:0.877846"><g
           id="g42"
           transform="rotate(180,370.88636,120.81776)"
           style="stroke-width:0.877846"><path
             d="m 489.6,80.3 h 37.2 V 69 h -37.2 z"
             style="fill:none;stroke:#ffffff;stroke-width:0.630969;stroke-linecap:butt;stroke-linejoin:miter;stroke-miterlimit:7.66129;stroke-dasharray:none;stroke-opacity:1"
             id="path41" /></g><g
           id="g43"
           transform="rotate(180,370.88636,120.81776)"
           style="stroke-width:0.877846"><path
             d="m 489,80.3 h 36.7"
             style="fill:none;stroke:#e10058;stroke-width:1.26194;stroke-linecap:butt;stroke-linejoin:miter;stroke-miterlimit:7.66129;stroke-dasharray:none;stroke-opacity:1"
             id="path42" /></g></g></g><path
       d="m 222.69563,130.29222 c -2.27782,0 -4.10007,1.82303 -4.10007,3.98789 0,2.27879 1.82225,4.10182 4.10007,4.10182 2.16392,0 3.98618,-1.82303 3.98618,-4.10182 0,-2.16486 -1.82226,-3.98789 -3.98618,-3.98789 z"
       style="fill:#fdf774;fill-opacity:1;fill-rule:evenodd;stroke:none;stroke-width:1"
       id="path45" /><g
       id="g46"
       transform="matrix(-1.1389075,0,0,1.1393964,800.91896,33.10169)"
       style="stroke-width:0.877846"><path
         d="m 507.7,85.3 c 2,0 3.6,1.6 3.6,3.5 0,2 -1.6,3.6 -3.6,3.6 -1.9,0 -3.5,-1.6 -3.5,-3.6 0,-1.9 1.6,-3.5 3.5,-3.5 z"
         style="fill:none;stroke:#000000;stroke-width:0.75716;stroke-linecap:butt;stroke-linejoin:miter;stroke-miterlimit:7.66129;stroke-dasharray:none;stroke-opacity:1"
         id="path46" /></g><path
       d="m 515.39485,130.06434 c -2.27781,0 -4.10006,1.82304 -4.10006,3.98789 0,2.27879 1.82225,4.10183 4.10006,4.10183 2.27782,0 4.10007,-1.82304 4.10007,-4.10183 0,-2.16485 -1.82225,-3.98789 -4.10007,-3.98789 z"
       style="fill:#fdf774;fill-opacity:1;fill-rule:evenodd;stroke:none;stroke-width:1"
       id="path47" /><path
       d="m 515.39486,130.06434 c -2.27782,0 -4.10007,1.82304 -4.10007,3.98789 0,2.27879 1.82225,4.10183 4.10007,4.10183 2.27781,0 4.10007,-1.82304 4.10007,-4.10183 0,-2.16485 -1.82226,-3.98789 -4.10007,-3.98789 z"
       style="fill:none;stroke:#000000;stroke-width:0.86252;stroke-linecap:butt;stroke-linejoin:miter;stroke-miterlimit:7.66129;stroke-dasharray:none;stroke-opacity:1"
       id="path48" /><path
       d="m 270.52974,161.11284 c -2.27781,0 -4.10007,1.7091 -4.10007,3.98789 0,2.27879 1.82226,4.10183 4.10007,4.10183 2.16392,0 3.98618,-1.82304 3.98618,-4.10183 0,-2.27879 -1.82226,-3.98789 -3.98618,-3.98789 z"
       style="fill:#fdf774;fill-opacity:1;fill-rule:evenodd;stroke:none;stroke-width:1"
       id="path6" /><path
       d="m 270.52974,160.9989 c -2.27782,0 -4.10007,1.82304 -4.10007,4.10183 0,2.27879 1.82225,3.98789 4.10007,3.98789 2.27781,0 4.10007,-1.7091 4.10007,-3.98789 0,-2.27879 -1.82226,-4.10183 -4.10007,-4.10183 z"
       style="fill:none;stroke:#000000;stroke-width:0.86252;stroke-linecap:butt;stroke-linejoin:miter;stroke-miterlimit:7.66129;stroke-dasharray:none;stroke-opacity:1"
       id="path13-68" /><path
       d="m 319.73054,161.08436 c -2.27781,0 -4.10007,1.7091 -4.10007,3.98789 0,2.27879 1.82226,4.10183 4.10007,4.10183 2.16392,0 3.98618,-1.82304 3.98618,-4.10183 0,-2.27879 -1.82226,-3.98789 -3.98618,-3.98789 z"
       style="fill:#fdf774;fill-opacity:1;fill-rule:evenodd;stroke:none;stroke-width:1"
       id="path40" /><path
       d="m 418.47385,161.11284 c -2.27781,0 -4.10007,1.7091 -4.10007,3.98789 0,2.27879 1.82226,4.10183 4.10007,4.10183 2.16392,0 3.98618,-1.82304 3.98618,-4.10183 0,-2.27879 -1.82226,-3.98789 -3.98618,-3.98789 z"
       style="fill:#fdf774;fill-opacity:1;fill-rule:evenodd;stroke:none;stroke-width:1"
       id="path44" /><path
       d="m 418.47385,161.11284 c -2.27782,0 -4.10007,1.82304 -4.10007,4.10183 0,2.27879 1.82225,3.98789 4.10007,3.98789 2.27781,0 4.10007,-1.7091 4.10007,-3.98789 0,-2.27879 -1.82226,-4.10183 -4.10007,-4.10183 z"
       style="fill:none;stroke:#000000;stroke-width:0.86252;stroke-linecap:butt;stroke-linejoin:miter;stroke-miterlimit:7.66129;stroke-dasharray:none;stroke-opacity:1"
       id="path13-6" /><path
       d="m 319.94792,160.89001 c -2.27782,0 -4.10007,1.82304 -4.10007,4.10183 0,2.27879 1.82225,3.98789 4.10007,3.98789 2.27781,0 4.10007,-1.7091 4.10007,-3.98789 0,-2.27879 -1.82226,-4.10183 -4.10007,-4.10183 z"
       style="fill:none;stroke:#000000;stroke-width:0.86252;stroke-linecap:butt;stroke-linejoin:miter;stroke-miterlimit:7.66129;stroke-dasharray:none;stroke-opacity:1"
       id="path13-7" /><path
       d="m 467.67467,161.11284 c -2.27781,0 -4.10007,1.7091 -4.10007,3.98789 0,2.27879 1.82226,4.10183 4.10007,4.10183 2.16392,0 3.98618,-1.82304 3.98618,-4.10183 0,-2.27879 -1.82226,-3.98789 -3.98618,-3.98789 z"
       style="fill:#fdf774;fill-opacity:1;fill-rule:evenodd;stroke:none;stroke-width:1"
       id="path60" /><path
       d="m 467.67467,161.11284 c -2.27782,0 -4.10007,1.82304 -4.10007,4.10183 0,2.27879 1.82225,3.98789 4.10007,3.98789 2.27781,0 4.10007,-1.7091 4.10007,-3.98789 0,-2.27879 -1.82226,-4.10183 -4.10007,-4.10183 z"
       style="fill:none;stroke:#000000;stroke-width:0.86252;stroke-linecap:butt;stroke-linejoin:miter;stroke-miterlimit:7.66129;stroke-dasharray:none;stroke-opacity:1"
       id="path13-5" /></g></svg>
